# xmcd
#
# Track frame offsets: 
#        150
#        18087
#        38844
#        56654
#        74642
#        90526
#        112824
#        137125
#        157574
#        175208
#        196482
#        216003
#        240814
#        265240
#
# Disc length: 3767 seconds
#
# Revision: 0
# Processed by: cddbd v1.5.2PL0 Copyright (c) Steve Scherf et al.
# Submitted via: ExactAudioCopy v0.99pb4
#
DISCID=b10eb50e
DTITLE=Willie Clayton - Love, Romance and Respect
DYEAR=2009
DGENRE=Soul
TTITLE0=Dance The Night Away
TTITLE1=I Need To Know
TTITLE2=Willie Clayton Feat. Dave Hollister - We Both Grown
TTITLE3=Good Woman, Good Man
TTITLE4=Love To You
TTITLE5=My Everything
TTITLE6=Put It On Me
TTITLE7=Special To Me
TTITLE8=Some Kind Of Wonderful
TTITLE9=Where Were You
TTITLE10=Willie Clayton Feat. Dave Hollister - We Both Grown (Bedroom 
TTITLE10=Mix)
TTITLE11=The Best Years Of My Life
TTITLE12=Dance The Night Away (Steppers Mix)
TTITLE13=Shake Your Money Maker
EXTD=
EXTT0=
EXTT1=
EXTT2=
EXTT3=
EXTT4=
EXTT5=
EXTT6=
EXTT7=
EXTT8=
EXTT9=
EXTT10=
EXTT11=
EXTT12=
EXTT13=
PLAYORDER=
